%FSLAX45Y45*%
G04 Gerber Fmt 4.5, Leading zero omitted, Abs format (unit mm)*
G04 Created by KiCad (PCBNEW (5.0.0)) date 10/15/18 15:54:26*
%MOMM*%
%LPD*%
G01*
G04 APERTURE LIST*
%ADD10C,0.150000*%
%ADD11C,0.200000*%
%ADD12C,0.300000*%
G04 APERTURE END LIST*
D10*
X16510000Y-8128000D02*
X11176000Y-8128000D01*
X16510000Y-12192000D02*
X16510000Y-8128000D01*
X11176000Y-12192000D02*
X16510000Y-12192000D01*
X11176000Y-8128000D02*
X11176000Y-12192000D01*
D11*
X13422000Y-9561200D02*
X13502000Y-9641200D01*
X13502000Y-9561200D02*
X13422000Y-9641200D01*
X13422000Y-9815200D02*
X13502000Y-9895200D01*
X13502000Y-9815200D02*
X13422000Y-9895200D01*
X13422000Y-10069200D02*
X13502000Y-10149200D01*
X13502000Y-10069200D02*
X13422000Y-10149200D01*
X13422000Y-10323200D02*
X13502000Y-10403200D01*
X13502000Y-10323200D02*
X13422000Y-10403200D01*
X13422000Y-10577200D02*
X13502000Y-10657200D01*
X13502000Y-10577200D02*
X13422000Y-10657200D01*
X13422000Y-10831200D02*
X13502000Y-10911200D01*
X13502000Y-10831200D02*
X13422000Y-10911200D01*
X13422000Y-11085200D02*
X13502000Y-11165200D01*
X13502000Y-11085200D02*
X13422000Y-11165200D01*
X14184000Y-9561200D02*
X14264000Y-9641200D01*
X14264000Y-9561200D02*
X14184000Y-9641200D01*
X14184000Y-9815200D02*
X14264000Y-9895200D01*
X14264000Y-9815200D02*
X14184000Y-9895200D01*
X14184000Y-10069200D02*
X14264000Y-10149200D01*
X14264000Y-10069200D02*
X14184000Y-10149200D01*
X14184000Y-10323200D02*
X14264000Y-10403200D01*
X14264000Y-10323200D02*
X14184000Y-10403200D01*
X14184000Y-10577200D02*
X14264000Y-10657200D01*
X14264000Y-10577200D02*
X14184000Y-10657200D01*
X14184000Y-10831200D02*
X14264000Y-10911200D01*
X14264000Y-10831200D02*
X14184000Y-10911200D01*
X14184000Y-11085200D02*
X14264000Y-11165200D01*
X14264000Y-11085200D02*
X14184000Y-11165200D01*
X15301600Y-11694800D02*
X15381600Y-11774800D01*
X15381600Y-11694800D02*
X15301600Y-11774800D01*
X16063600Y-11694800D02*
X16143600Y-11774800D01*
X16143600Y-11694800D02*
X16063600Y-11774800D01*
X15301600Y-10475600D02*
X15381600Y-10555600D01*
X15381600Y-10475600D02*
X15301600Y-10555600D01*
X16063600Y-10475600D02*
X16143600Y-10555600D01*
X16143600Y-10475600D02*
X16063600Y-10555600D01*
X15301600Y-9307200D02*
X15381600Y-9387200D01*
X15381600Y-9307200D02*
X15301600Y-9387200D01*
X16063600Y-9307200D02*
X16143600Y-9387200D01*
X16143600Y-9307200D02*
X16063600Y-9387200D01*
X15758800Y-9819200D02*
X15838800Y-9899200D01*
X15838800Y-9819200D02*
X15758800Y-9899200D01*
X15758800Y-10069200D02*
X15838800Y-10149200D01*
X15838800Y-10069200D02*
X15758800Y-10149200D01*
X11898000Y-8549200D02*
X11978000Y-8629200D01*
X11978000Y-8549200D02*
X11898000Y-8629200D01*
X11898000Y-8799200D02*
X11978000Y-8879200D01*
X11978000Y-8799200D02*
X11898000Y-8879200D01*
X15758800Y-8600000D02*
X15838800Y-8680000D01*
X15838800Y-8600000D02*
X15758800Y-8680000D01*
X15758800Y-8850000D02*
X15838800Y-8930000D01*
X15838800Y-8850000D02*
X15758800Y-8930000D01*
X11542400Y-11542400D02*
X11622400Y-11622400D01*
X11622400Y-11542400D02*
X11542400Y-11622400D01*
X12304400Y-11542400D02*
X12384400Y-11622400D01*
X12384400Y-11542400D02*
X12304400Y-11622400D01*
X11898000Y-10882000D02*
X11978000Y-10962000D01*
X11978000Y-10882000D02*
X11898000Y-10962000D01*
X11898000Y-11132000D02*
X11978000Y-11212000D01*
X11978000Y-11132000D02*
X11898000Y-11212000D01*
X15758800Y-10987600D02*
X15838800Y-11067600D01*
X15838800Y-10987600D02*
X15758800Y-11067600D01*
X15758800Y-11237600D02*
X15838800Y-11317600D01*
X15838800Y-11237600D02*
X15758800Y-11317600D01*
X11542400Y-10424800D02*
X11622400Y-10504800D01*
X11622400Y-10424800D02*
X11542400Y-10504800D01*
X12304400Y-10424800D02*
X12384400Y-10504800D01*
X12384400Y-10424800D02*
X12304400Y-10504800D01*
X11898000Y-9768400D02*
X11978000Y-9848400D01*
X11978000Y-9768400D02*
X11898000Y-9848400D01*
X11898000Y-10018400D02*
X11978000Y-10098400D01*
X11978000Y-10018400D02*
X11898000Y-10098400D01*
X11542400Y-9256400D02*
X11622400Y-9336400D01*
X11622400Y-9256400D02*
X11542400Y-9336400D01*
X12304400Y-9256400D02*
X12384400Y-9336400D01*
X12384400Y-9256400D02*
X12304400Y-9336400D01*
X14782000Y-10109200D02*
G75*
G03X14782000Y-10109200I-50000J0D01*
G01*
X14782000Y-11125200D02*
G75*
G03X14782000Y-11125200I-50000J0D01*
G01*
X14782000Y-10617200D02*
G75*
G03X14782000Y-10617200I-50000J0D01*
G01*
X13867600Y-8483600D02*
G75*
G03X13867600Y-8483600I-50000J0D01*
G01*
X13867600Y-8737600D02*
G75*
G03X13867600Y-8737600I-50000J0D01*
G01*
X12953200Y-10871200D02*
G75*
G03X12953200Y-10871200I-50000J0D01*
G01*
X12394400Y-8585200D02*
G75*
G03X12394400Y-8585200I-50000J0D01*
G01*
X12394400Y-8839200D02*
G75*
G03X12394400Y-8839200I-50000J0D01*
G01*
X15391600Y-8636000D02*
G75*
G03X15391600Y-8636000I-50000J0D01*
G01*
X15391600Y-8890000D02*
G75*
G03X15391600Y-8890000I-50000J0D01*
G01*
X12953200Y-9855200D02*
G75*
G03X12953200Y-9855200I-50000J0D01*
G01*
X12953200Y-10363200D02*
G75*
G03X12953200Y-10363200I-50000J0D01*
G01*
X15391600Y-9855200D02*
G75*
G03X15391600Y-9855200I-50000J0D01*
G01*
X15391600Y-10109200D02*
G75*
G03X15391600Y-10109200I-50000J0D01*
G01*
X15391600Y-11023600D02*
G75*
G03X15391600Y-11023600I-50000J0D01*
G01*
X15391600Y-11277600D02*
G75*
G03X15391600Y-11277600I-50000J0D01*
G01*
X12394400Y-10922000D02*
G75*
G03X12394400Y-10922000I-50000J0D01*
G01*
X12394400Y-11176000D02*
G75*
G03X12394400Y-11176000I-50000J0D01*
G01*
X12394400Y-9804400D02*
G75*
G03X12394400Y-9804400I-50000J0D01*
G01*
X12394400Y-10058400D02*
G75*
G03X12394400Y-10058400I-50000J0D01*
G01*
D12*
X11454928Y-12665214D02*
X11454928Y-12365214D01*
X11526357Y-12365214D01*
X11569214Y-12379500D01*
X11597786Y-12408071D01*
X11612071Y-12436643D01*
X11626357Y-12493786D01*
X11626357Y-12536643D01*
X11612071Y-12593786D01*
X11597786Y-12622357D01*
X11569214Y-12650929D01*
X11526357Y-12665214D01*
X11454928Y-12665214D01*
X11754928Y-12665214D02*
X11754928Y-12465214D01*
X11754928Y-12522357D02*
X11769214Y-12493786D01*
X11783500Y-12479500D01*
X11812071Y-12465214D01*
X11840643Y-12465214D01*
X11940643Y-12665214D02*
X11940643Y-12465214D01*
X11940643Y-12365214D02*
X11926357Y-12379500D01*
X11940643Y-12393786D01*
X11954928Y-12379500D01*
X11940643Y-12365214D01*
X11940643Y-12393786D01*
X12126357Y-12665214D02*
X12097786Y-12650929D01*
X12083500Y-12622357D01*
X12083500Y-12365214D01*
X12283500Y-12665214D02*
X12254928Y-12650929D01*
X12240643Y-12622357D01*
X12240643Y-12365214D01*
X12626357Y-12665214D02*
X12626357Y-12365214D01*
X12726357Y-12579500D01*
X12826357Y-12365214D01*
X12826357Y-12665214D01*
X13097786Y-12665214D02*
X13097786Y-12508071D01*
X13083500Y-12479500D01*
X13054928Y-12465214D01*
X12997786Y-12465214D01*
X12969214Y-12479500D01*
X13097786Y-12650929D02*
X13069214Y-12665214D01*
X12997786Y-12665214D01*
X12969214Y-12650929D01*
X12954928Y-12622357D01*
X12954928Y-12593786D01*
X12969214Y-12565214D01*
X12997786Y-12550929D01*
X13069214Y-12550929D01*
X13097786Y-12536643D01*
X13240643Y-12465214D02*
X13240643Y-12765214D01*
X13240643Y-12479500D02*
X13269214Y-12465214D01*
X13326357Y-12465214D01*
X13354928Y-12479500D01*
X13369214Y-12493786D01*
X13383500Y-12522357D01*
X13383500Y-12608071D01*
X13369214Y-12636643D01*
X13354928Y-12650929D01*
X13326357Y-12665214D01*
X13269214Y-12665214D01*
X13240643Y-12650929D01*
X13512071Y-12636643D02*
X13526357Y-12650929D01*
X13512071Y-12665214D01*
X13497786Y-12650929D01*
X13512071Y-12636643D01*
X13512071Y-12665214D01*
X13512071Y-12479500D02*
X13526357Y-12493786D01*
X13512071Y-12508071D01*
X13497786Y-12493786D01*
X13512071Y-12479500D01*
X13512071Y-12508071D01*
X11088500Y-13119500D02*
X11168500Y-13199500D01*
X11168500Y-13119500D02*
X11088500Y-13199500D01*
X11512071Y-12995214D02*
X11540643Y-12995214D01*
X11569214Y-13009500D01*
X11583500Y-13023786D01*
X11597786Y-13052357D01*
X11612071Y-13109500D01*
X11612071Y-13180929D01*
X11597786Y-13238071D01*
X11583500Y-13266643D01*
X11569214Y-13280929D01*
X11540643Y-13295214D01*
X11512071Y-13295214D01*
X11483500Y-13280929D01*
X11469214Y-13266643D01*
X11454928Y-13238071D01*
X11440643Y-13180929D01*
X11440643Y-13109500D01*
X11454928Y-13052357D01*
X11469214Y-13023786D01*
X11483500Y-13009500D01*
X11512071Y-12995214D01*
X11740643Y-13266643D02*
X11754928Y-13280929D01*
X11740643Y-13295214D01*
X11726357Y-13280929D01*
X11740643Y-13266643D01*
X11740643Y-13295214D01*
X11926357Y-13123786D02*
X11897786Y-13109500D01*
X11883500Y-13095214D01*
X11869214Y-13066643D01*
X11869214Y-13052357D01*
X11883500Y-13023786D01*
X11897786Y-13009500D01*
X11926357Y-12995214D01*
X11983500Y-12995214D01*
X12012071Y-13009500D01*
X12026357Y-13023786D01*
X12040643Y-13052357D01*
X12040643Y-13066643D01*
X12026357Y-13095214D01*
X12012071Y-13109500D01*
X11983500Y-13123786D01*
X11926357Y-13123786D01*
X11897786Y-13138071D01*
X11883500Y-13152357D01*
X11869214Y-13180929D01*
X11869214Y-13238071D01*
X11883500Y-13266643D01*
X11897786Y-13280929D01*
X11926357Y-13295214D01*
X11983500Y-13295214D01*
X12012071Y-13280929D01*
X12026357Y-13266643D01*
X12040643Y-13238071D01*
X12040643Y-13180929D01*
X12026357Y-13152357D01*
X12012071Y-13138071D01*
X11983500Y-13123786D01*
X12226357Y-12995214D02*
X12254928Y-12995214D01*
X12283500Y-13009500D01*
X12297786Y-13023786D01*
X12312071Y-13052357D01*
X12326357Y-13109500D01*
X12326357Y-13180929D01*
X12312071Y-13238071D01*
X12297786Y-13266643D01*
X12283500Y-13280929D01*
X12254928Y-13295214D01*
X12226357Y-13295214D01*
X12197786Y-13280929D01*
X12183500Y-13266643D01*
X12169214Y-13238071D01*
X12154928Y-13180929D01*
X12154928Y-13109500D01*
X12169214Y-13052357D01*
X12183500Y-13023786D01*
X12197786Y-13009500D01*
X12226357Y-12995214D01*
X12454928Y-13295214D02*
X12454928Y-13095214D01*
X12454928Y-13123786D02*
X12469214Y-13109500D01*
X12497786Y-13095214D01*
X12540643Y-13095214D01*
X12569214Y-13109500D01*
X12583500Y-13138071D01*
X12583500Y-13295214D01*
X12583500Y-13138071D02*
X12597786Y-13109500D01*
X12626357Y-13095214D01*
X12669214Y-13095214D01*
X12697786Y-13109500D01*
X12712071Y-13138071D01*
X12712071Y-13295214D01*
X12854928Y-13295214D02*
X12854928Y-13095214D01*
X12854928Y-13123786D02*
X12869214Y-13109500D01*
X12897786Y-13095214D01*
X12940643Y-13095214D01*
X12969214Y-13109500D01*
X12983500Y-13138071D01*
X12983500Y-13295214D01*
X12983500Y-13138071D02*
X12997786Y-13109500D01*
X13026357Y-13095214D01*
X13069214Y-13095214D01*
X13097786Y-13109500D01*
X13112071Y-13138071D01*
X13112071Y-13295214D01*
X13697786Y-12980929D02*
X13440643Y-13366643D01*
X14083500Y-12995214D02*
X14112071Y-12995214D01*
X14140643Y-13009500D01*
X14154928Y-13023786D01*
X14169214Y-13052357D01*
X14183500Y-13109500D01*
X14183500Y-13180929D01*
X14169214Y-13238071D01*
X14154928Y-13266643D01*
X14140643Y-13280929D01*
X14112071Y-13295214D01*
X14083500Y-13295214D01*
X14054928Y-13280929D01*
X14040643Y-13266643D01*
X14026357Y-13238071D01*
X14012071Y-13180929D01*
X14012071Y-13109500D01*
X14026357Y-13052357D01*
X14040643Y-13023786D01*
X14054928Y-13009500D01*
X14083500Y-12995214D01*
X14312071Y-13266643D02*
X14326357Y-13280929D01*
X14312071Y-13295214D01*
X14297786Y-13280929D01*
X14312071Y-13266643D01*
X14312071Y-13295214D01*
X14512071Y-12995214D02*
X14540643Y-12995214D01*
X14569214Y-13009500D01*
X14583500Y-13023786D01*
X14597786Y-13052357D01*
X14612071Y-13109500D01*
X14612071Y-13180929D01*
X14597786Y-13238071D01*
X14583500Y-13266643D01*
X14569214Y-13280929D01*
X14540643Y-13295214D01*
X14512071Y-13295214D01*
X14483500Y-13280929D01*
X14469214Y-13266643D01*
X14454928Y-13238071D01*
X14440643Y-13180929D01*
X14440643Y-13109500D01*
X14454928Y-13052357D01*
X14469214Y-13023786D01*
X14483500Y-13009500D01*
X14512071Y-12995214D01*
X14712071Y-12995214D02*
X14897786Y-12995214D01*
X14797786Y-13109500D01*
X14840643Y-13109500D01*
X14869214Y-13123786D01*
X14883500Y-13138071D01*
X14897786Y-13166643D01*
X14897786Y-13238071D01*
X14883500Y-13266643D01*
X14869214Y-13280929D01*
X14840643Y-13295214D01*
X14754928Y-13295214D01*
X14726357Y-13280929D01*
X14712071Y-13266643D01*
X15183500Y-13295214D02*
X15012071Y-13295214D01*
X15097786Y-13295214D02*
X15097786Y-12995214D01*
X15069214Y-13038071D01*
X15040643Y-13066643D01*
X15012071Y-13080929D01*
X15297786Y-12995214D02*
X15297786Y-13052357D01*
X15412071Y-12995214D02*
X15412071Y-13052357D01*
X15854928Y-13409500D02*
X15840643Y-13395214D01*
X15812071Y-13352357D01*
X15797786Y-13323786D01*
X15783500Y-13280929D01*
X15769214Y-13209500D01*
X15769214Y-13152357D01*
X15783500Y-13080929D01*
X15797786Y-13038071D01*
X15812071Y-13009500D01*
X15840643Y-12966643D01*
X15854928Y-12952357D01*
X15940643Y-12995214D02*
X16126357Y-12995214D01*
X16026357Y-13109500D01*
X16069214Y-13109500D01*
X16097786Y-13123786D01*
X16112071Y-13138071D01*
X16126357Y-13166643D01*
X16126357Y-13238071D01*
X16112071Y-13266643D01*
X16097786Y-13280929D01*
X16069214Y-13295214D01*
X15983500Y-13295214D01*
X15954928Y-13280929D01*
X15940643Y-13266643D01*
X16297786Y-13123786D02*
X16269214Y-13109500D01*
X16254928Y-13095214D01*
X16240643Y-13066643D01*
X16240643Y-13052357D01*
X16254928Y-13023786D01*
X16269214Y-13009500D01*
X16297786Y-12995214D01*
X16354928Y-12995214D01*
X16383500Y-13009500D01*
X16397786Y-13023786D01*
X16412071Y-13052357D01*
X16412071Y-13066643D01*
X16397786Y-13095214D01*
X16383500Y-13109500D01*
X16354928Y-13123786D01*
X16297786Y-13123786D01*
X16269214Y-13138071D01*
X16254928Y-13152357D01*
X16240643Y-13180929D01*
X16240643Y-13238071D01*
X16254928Y-13266643D01*
X16269214Y-13280929D01*
X16297786Y-13295214D01*
X16354928Y-13295214D01*
X16383500Y-13280929D01*
X16397786Y-13266643D01*
X16412071Y-13238071D01*
X16412071Y-13180929D01*
X16397786Y-13152357D01*
X16383500Y-13138071D01*
X16354928Y-13123786D01*
X16769214Y-13295214D02*
X16769214Y-12995214D01*
X16897786Y-13295214D02*
X16897786Y-13138071D01*
X16883500Y-13109500D01*
X16854928Y-13095214D01*
X16812071Y-13095214D01*
X16783500Y-13109500D01*
X16769214Y-13123786D01*
X17083500Y-13295214D02*
X17054928Y-13280929D01*
X17040643Y-13266643D01*
X17026357Y-13238071D01*
X17026357Y-13152357D01*
X17040643Y-13123786D01*
X17054928Y-13109500D01*
X17083500Y-13095214D01*
X17126357Y-13095214D01*
X17154928Y-13109500D01*
X17169214Y-13123786D01*
X17183500Y-13152357D01*
X17183500Y-13238071D01*
X17169214Y-13266643D01*
X17154928Y-13280929D01*
X17126357Y-13295214D01*
X17083500Y-13295214D01*
X17354928Y-13295214D02*
X17326357Y-13280929D01*
X17312071Y-13252357D01*
X17312071Y-12995214D01*
X17583500Y-13280929D02*
X17554928Y-13295214D01*
X17497786Y-13295214D01*
X17469214Y-13280929D01*
X17454928Y-13252357D01*
X17454928Y-13138071D01*
X17469214Y-13109500D01*
X17497786Y-13095214D01*
X17554928Y-13095214D01*
X17583500Y-13109500D01*
X17597786Y-13138071D01*
X17597786Y-13166643D01*
X17454928Y-13195214D01*
X17712071Y-13280929D02*
X17740643Y-13295214D01*
X17797786Y-13295214D01*
X17826357Y-13280929D01*
X17840643Y-13252357D01*
X17840643Y-13238071D01*
X17826357Y-13209500D01*
X17797786Y-13195214D01*
X17754928Y-13195214D01*
X17726357Y-13180929D01*
X17712071Y-13152357D01*
X17712071Y-13138071D01*
X17726357Y-13109500D01*
X17754928Y-13095214D01*
X17797786Y-13095214D01*
X17826357Y-13109500D01*
X17940643Y-13409500D02*
X17954928Y-13395214D01*
X17983500Y-13352357D01*
X17997786Y-13323786D01*
X18012071Y-13280929D01*
X18026357Y-13209500D01*
X18026357Y-13152357D01*
X18012071Y-13080929D01*
X17997786Y-13038071D01*
X17983500Y-13009500D01*
X17954928Y-12966643D01*
X17940643Y-12952357D01*
X11168500Y-13555500D02*
G75*
G03X11168500Y-13555500I-50000J0D01*
G01*
X11612071Y-13691214D02*
X11440643Y-13691214D01*
X11526357Y-13691214D02*
X11526357Y-13391214D01*
X11497786Y-13434071D01*
X11469214Y-13462643D01*
X11440643Y-13476929D01*
X11740643Y-13662643D02*
X11754928Y-13676929D01*
X11740643Y-13691214D01*
X11726357Y-13676929D01*
X11740643Y-13662643D01*
X11740643Y-13691214D01*
X11940643Y-13391214D02*
X11969214Y-13391214D01*
X11997786Y-13405500D01*
X12012071Y-13419786D01*
X12026357Y-13448357D01*
X12040643Y-13505500D01*
X12040643Y-13576929D01*
X12026357Y-13634071D01*
X12012071Y-13662643D01*
X11997786Y-13676929D01*
X11969214Y-13691214D01*
X11940643Y-13691214D01*
X11912071Y-13676929D01*
X11897786Y-13662643D01*
X11883500Y-13634071D01*
X11869214Y-13576929D01*
X11869214Y-13505500D01*
X11883500Y-13448357D01*
X11897786Y-13419786D01*
X11912071Y-13405500D01*
X11940643Y-13391214D01*
X12226357Y-13391214D02*
X12254928Y-13391214D01*
X12283500Y-13405500D01*
X12297786Y-13419786D01*
X12312071Y-13448357D01*
X12326357Y-13505500D01*
X12326357Y-13576929D01*
X12312071Y-13634071D01*
X12297786Y-13662643D01*
X12283500Y-13676929D01*
X12254928Y-13691214D01*
X12226357Y-13691214D01*
X12197786Y-13676929D01*
X12183500Y-13662643D01*
X12169214Y-13634071D01*
X12154928Y-13576929D01*
X12154928Y-13505500D01*
X12169214Y-13448357D01*
X12183500Y-13419786D01*
X12197786Y-13405500D01*
X12226357Y-13391214D01*
X12454928Y-13691214D02*
X12454928Y-13491214D01*
X12454928Y-13519786D02*
X12469214Y-13505500D01*
X12497786Y-13491214D01*
X12540643Y-13491214D01*
X12569214Y-13505500D01*
X12583500Y-13534071D01*
X12583500Y-13691214D01*
X12583500Y-13534071D02*
X12597786Y-13505500D01*
X12626357Y-13491214D01*
X12669214Y-13491214D01*
X12697786Y-13505500D01*
X12712071Y-13534071D01*
X12712071Y-13691214D01*
X12854928Y-13691214D02*
X12854928Y-13491214D01*
X12854928Y-13519786D02*
X12869214Y-13505500D01*
X12897786Y-13491214D01*
X12940643Y-13491214D01*
X12969214Y-13505500D01*
X12983500Y-13534071D01*
X12983500Y-13691214D01*
X12983500Y-13534071D02*
X12997786Y-13505500D01*
X13026357Y-13491214D01*
X13069214Y-13491214D01*
X13097786Y-13505500D01*
X13112071Y-13534071D01*
X13112071Y-13691214D01*
X13697786Y-13376929D02*
X13440643Y-13762643D01*
X14083500Y-13391214D02*
X14112071Y-13391214D01*
X14140643Y-13405500D01*
X14154928Y-13419786D01*
X14169214Y-13448357D01*
X14183500Y-13505500D01*
X14183500Y-13576929D01*
X14169214Y-13634071D01*
X14154928Y-13662643D01*
X14140643Y-13676929D01*
X14112071Y-13691214D01*
X14083500Y-13691214D01*
X14054928Y-13676929D01*
X14040643Y-13662643D01*
X14026357Y-13634071D01*
X14012071Y-13576929D01*
X14012071Y-13505500D01*
X14026357Y-13448357D01*
X14040643Y-13419786D01*
X14054928Y-13405500D01*
X14083500Y-13391214D01*
X14312071Y-13662643D02*
X14326357Y-13676929D01*
X14312071Y-13691214D01*
X14297786Y-13676929D01*
X14312071Y-13662643D01*
X14312071Y-13691214D01*
X14512071Y-13391214D02*
X14540643Y-13391214D01*
X14569214Y-13405500D01*
X14583500Y-13419786D01*
X14597786Y-13448357D01*
X14612071Y-13505500D01*
X14612071Y-13576929D01*
X14597786Y-13634071D01*
X14583500Y-13662643D01*
X14569214Y-13676929D01*
X14540643Y-13691214D01*
X14512071Y-13691214D01*
X14483500Y-13676929D01*
X14469214Y-13662643D01*
X14454928Y-13634071D01*
X14440643Y-13576929D01*
X14440643Y-13505500D01*
X14454928Y-13448357D01*
X14469214Y-13419786D01*
X14483500Y-13405500D01*
X14512071Y-13391214D01*
X14712071Y-13391214D02*
X14897786Y-13391214D01*
X14797786Y-13505500D01*
X14840643Y-13505500D01*
X14869214Y-13519786D01*
X14883500Y-13534071D01*
X14897786Y-13562643D01*
X14897786Y-13634071D01*
X14883500Y-13662643D01*
X14869214Y-13676929D01*
X14840643Y-13691214D01*
X14754928Y-13691214D01*
X14726357Y-13676929D01*
X14712071Y-13662643D01*
X15040643Y-13691214D02*
X15097786Y-13691214D01*
X15126357Y-13676929D01*
X15140643Y-13662643D01*
X15169214Y-13619786D01*
X15183500Y-13562643D01*
X15183500Y-13448357D01*
X15169214Y-13419786D01*
X15154928Y-13405500D01*
X15126357Y-13391214D01*
X15069214Y-13391214D01*
X15040643Y-13405500D01*
X15026357Y-13419786D01*
X15012071Y-13448357D01*
X15012071Y-13519786D01*
X15026357Y-13548357D01*
X15040643Y-13562643D01*
X15069214Y-13576929D01*
X15126357Y-13576929D01*
X15154928Y-13562643D01*
X15169214Y-13548357D01*
X15183500Y-13519786D01*
X15297786Y-13391214D02*
X15297786Y-13448357D01*
X15412071Y-13391214D02*
X15412071Y-13448357D01*
X15854928Y-13805500D02*
X15840643Y-13791214D01*
X15812071Y-13748357D01*
X15797786Y-13719786D01*
X15783500Y-13676929D01*
X15769214Y-13605500D01*
X15769214Y-13548357D01*
X15783500Y-13476929D01*
X15797786Y-13434071D01*
X15812071Y-13405500D01*
X15840643Y-13362643D01*
X15854928Y-13348357D01*
X15954928Y-13419786D02*
X15969214Y-13405500D01*
X15997786Y-13391214D01*
X16069214Y-13391214D01*
X16097786Y-13405500D01*
X16112071Y-13419786D01*
X16126357Y-13448357D01*
X16126357Y-13476929D01*
X16112071Y-13519786D01*
X15940643Y-13691214D01*
X16126357Y-13691214D01*
X16312071Y-13391214D02*
X16340643Y-13391214D01*
X16369214Y-13405500D01*
X16383500Y-13419786D01*
X16397786Y-13448357D01*
X16412071Y-13505500D01*
X16412071Y-13576929D01*
X16397786Y-13634071D01*
X16383500Y-13662643D01*
X16369214Y-13676929D01*
X16340643Y-13691214D01*
X16312071Y-13691214D01*
X16283500Y-13676929D01*
X16269214Y-13662643D01*
X16254928Y-13634071D01*
X16240643Y-13576929D01*
X16240643Y-13505500D01*
X16254928Y-13448357D01*
X16269214Y-13419786D01*
X16283500Y-13405500D01*
X16312071Y-13391214D01*
X16769214Y-13691214D02*
X16769214Y-13391214D01*
X16897786Y-13691214D02*
X16897786Y-13534071D01*
X16883500Y-13505500D01*
X16854928Y-13491214D01*
X16812071Y-13491214D01*
X16783500Y-13505500D01*
X16769214Y-13519786D01*
X17083500Y-13691214D02*
X17054928Y-13676929D01*
X17040643Y-13662643D01*
X17026357Y-13634071D01*
X17026357Y-13548357D01*
X17040643Y-13519786D01*
X17054928Y-13505500D01*
X17083500Y-13491214D01*
X17126357Y-13491214D01*
X17154928Y-13505500D01*
X17169214Y-13519786D01*
X17183500Y-13548357D01*
X17183500Y-13634071D01*
X17169214Y-13662643D01*
X17154928Y-13676929D01*
X17126357Y-13691214D01*
X17083500Y-13691214D01*
X17354928Y-13691214D02*
X17326357Y-13676929D01*
X17312071Y-13648357D01*
X17312071Y-13391214D01*
X17583500Y-13676929D02*
X17554928Y-13691214D01*
X17497786Y-13691214D01*
X17469214Y-13676929D01*
X17454928Y-13648357D01*
X17454928Y-13534071D01*
X17469214Y-13505500D01*
X17497786Y-13491214D01*
X17554928Y-13491214D01*
X17583500Y-13505500D01*
X17597786Y-13534071D01*
X17597786Y-13562643D01*
X17454928Y-13591214D01*
X17712071Y-13676929D02*
X17740643Y-13691214D01*
X17797786Y-13691214D01*
X17826357Y-13676929D01*
X17840643Y-13648357D01*
X17840643Y-13634071D01*
X17826357Y-13605500D01*
X17797786Y-13591214D01*
X17754928Y-13591214D01*
X17726357Y-13576929D01*
X17712071Y-13548357D01*
X17712071Y-13534071D01*
X17726357Y-13505500D01*
X17754928Y-13491214D01*
X17797786Y-13491214D01*
X17826357Y-13505500D01*
X17940643Y-13805500D02*
X17954928Y-13791214D01*
X17983500Y-13748357D01*
X17997786Y-13719786D01*
X18012071Y-13676929D01*
X18026357Y-13605500D01*
X18026357Y-13548357D01*
X18012071Y-13476929D01*
X17997786Y-13434071D01*
X17983500Y-13405500D01*
X17954928Y-13362643D01*
X17940643Y-13348357D01*
M02*
