M48
;DRILL file {KiCad (5.0.0)} date 10/15/18 15:53:43
;FORMAT={3:3/ absolute / metric / suppress trailing zeros}
FMAT,2
METRIC,LZ
T1C0.800
T2C1.000
%
G90
G05
M71
T1
X13462Y-096012
X13462Y-098552
X13462Y-101092
X13462Y-103632
X13462Y-106172
X13462Y-108712
X13462Y-111252
X14224Y-096012
X14224Y-098552
X14224Y-101092
X14224Y-103632
X14224Y-106172
X14224Y-108712
X14224Y-111252
X153416Y-117348
X161036Y-117348
X153416Y-105156
X161036Y-105156
X153416Y-093472
X161036Y-093472
X157988Y-098592
X157988Y-101092
X11938Y-085892
X11938Y-088392
X157988Y-0864
X157988Y-0889
X115824Y-115824
X123444Y-115824
X11938Y-10922
X11938Y-11172
X157988Y-110276
X157988Y-112776
X115824Y-104648
X123444Y-104648
X11938Y-098084
X11938Y-100584
X115824Y-092964
X123444Y-092964
T2
X14732Y-101092
X14732Y-111252
X14732Y-106172
X138176Y-084836
X138176Y-087376
X129032Y-108712
X123444Y-085852
X123444Y-088392
X153416Y-08636
X153416Y-0889
X129032Y-098552
X129032Y-103632
X153416Y-098552
X153416Y-101092
X153416Y-110236
X153416Y-112776
X123444Y-10922
X123444Y-11176
X123444Y-098044
X123444Y-100584
T0
M30
